<?xml version="1.0" encoding="UTF-8" standalone="no"?>
<!DOCTYPE svg PUBLIC "-//W3C//DTD SVG 1.1//EN"
 "http://www.w3.org/Graphics/SVG/1.1/DTD/svg11.dtd">
<!-- Generated by graphviz version 2.40.1 (20161225.0304)
 -->
<!-- Title: state transitions Pages: 1 -->
<svg width="541pt" height="528pt"
 viewBox="0.00 0.00 541.00 528.00" xmlns="http://www.w3.org/2000/svg" xmlns:xlink="http://www.w3.org/1999/xlink">
<g id="graph0" class="graph" transform="scale(1 1) rotate(0) translate(4 524)">
<title>state transitions</title>
<polygon fill="#ffffff" stroke="transparent" points="-4,4 -4,-524 537,-524 537,4 -4,4"/>
<g id="clust1" class="cluster state regular">
<title>cluster_next_st_wr2axi</title>
<path fill="none" stroke="#000000" stroke-width="2" d="M20,-8C20,-8 513,-8 513,-8 519,-8 525,-14 525,-20 525,-20 525,-500 525,-500 525,-506 519,-512 513,-512 513,-512 20,-512 20,-512 14,-512 8,-506 8,-500 8,-500 8,-20 8,-20 8,-14 14,-8 20,-8"/>
<text text-anchor="start" x="226.4926" y="-493.2" font-family="Helvetica,sans-Serif" font-size="12.00" fill="#000000">next_st_wr2axi</text>
</g>
<!-- next_st_wr2axi -->
<!-- WR_IDLE -->
<g id="node2" class="node state regular">
<title>WR_IDLE</title>
<polygon fill="#ffffff" fill-opacity="0.003922" stroke="transparent" stroke-width="2" points="274.5,-474 199.5,-474 199.5,-438 274.5,-438 274.5,-474"/>
<text text-anchor="start" x="210.8342" y="-452.2" font-family="Helvetica,sans-Serif" font-size="12.00" fill="#000000">WR_IDLE</text>
<path fill="none" stroke="#000000" stroke-width="2" d="M211.8333,-439C211.8333,-439 262.1667,-439 262.1667,-439 267.8333,-439 273.5,-444.6667 273.5,-450.3333 273.5,-450.3333 273.5,-461.6667 273.5,-461.6667 273.5,-467.3333 267.8333,-473 262.1667,-473 262.1667,-473 211.8333,-473 211.8333,-473 206.1667,-473 200.5,-467.3333 200.5,-461.6667 200.5,-461.6667 200.5,-450.3333 200.5,-450.3333 200.5,-444.6667 206.1667,-439 211.8333,-439"/>
</g>
<!-- WR_PRE -->
<g id="node3" class="node state regular">
<title>WR_PRE</title>
<polygon fill="#ffffff" fill-opacity="0.003922" stroke="transparent" stroke-width="2" points="273.5,-392 200.5,-392 200.5,-356 273.5,-356 273.5,-392"/>
<text text-anchor="start" x="211.8356" y="-370.2" font-family="Helvetica,sans-Serif" font-size="12.00" fill="#000000">WR_PRE</text>
<path fill="none" stroke="#000000" stroke-width="2" d="M212.8333,-357C212.8333,-357 261.1667,-357 261.1667,-357 266.8333,-357 272.5,-362.6667 272.5,-368.3333 272.5,-368.3333 272.5,-379.6667 272.5,-379.6667 272.5,-385.3333 266.8333,-391 261.1667,-391 261.1667,-391 212.8333,-391 212.8333,-391 207.1667,-391 201.5,-385.3333 201.5,-379.6667 201.5,-379.6667 201.5,-368.3333 201.5,-368.3333 201.5,-362.6667 207.1667,-357 212.8333,-357"/>
</g>
<!-- WR_IDLE&#45;&gt;WR_PRE -->
<g id="edge1" class="edge transition">
<title>WR_IDLE&#45;&gt;WR_PRE</title>
<path fill="none" stroke="#000000" d="M219.0534,-437.7687C215.1685,-432.7282 211.608,-426.986 209.54,-421 207.2179,-414.2784 208.6336,-407.4474 211.7903,-401.1521"/>
<polygon fill="#000000" stroke="#000000" points="214.962,-402.6909 217.4284,-392.3871 209.0748,-398.9039 214.962,-402.6909"/>
<text text-anchor="start" x="209" y="-412" font-family="Helvetica,sans-Serif" font-size="10.00" fill="#000000">ap_start &#160;&#160;</text>
</g>
<!-- WR_PRE&#45;&gt;WR_IDLE -->
<g id="edge2" class="edge transition">
<title>WR_PRE&#45;&gt;WR_IDLE</title>
<path fill="none" stroke="#000000" d="M248.4417,-392.2485C251.1324,-397.4648 253.6174,-403.2887 255,-409 256.538,-415.3534 255.6398,-422.0072 253.598,-428.2434"/>
<polygon fill="#000000" stroke="#000000" points="250.3139,-427.0231 249.6339,-437.5961 256.7589,-429.7548 250.3139,-427.0231"/>
<text text-anchor="start" x="255" y="-412" font-family="Helvetica,sans-Serif" font-size="10.00" fill="#000000">q_burst_cnt_wr == num_trans_d &#160;&#160;</text>
</g>
<!-- WR_START -->
<g id="node4" class="node state regular">
<title>WR_START</title>
<polygon fill="#ffffff" fill-opacity="0.003922" stroke="transparent" stroke-width="2" points="107.5,-310 20.5,-310 20.5,-274 107.5,-274 107.5,-310"/>
<text text-anchor="start" x="31.5048" y="-288.2" font-family="Helvetica,sans-Serif" font-size="12.00" fill="#000000">WR_START</text>
<path fill="none" stroke="#000000" stroke-width="2" d="M32.8333,-275C32.8333,-275 95.1667,-275 95.1667,-275 100.8333,-275 106.5,-280.6667 106.5,-286.3333 106.5,-286.3333 106.5,-297.6667 106.5,-297.6667 106.5,-303.3333 100.8333,-309 95.1667,-309 95.1667,-309 32.8333,-309 32.8333,-309 27.1667,-309 21.5,-303.3333 21.5,-297.6667 21.5,-297.6667 21.5,-286.3333 21.5,-286.3333 21.5,-280.6667 27.1667,-275 32.8333,-275"/>
</g>
<!-- WR_PRE&#45;&gt;WR_START -->
<g id="edge3" class="edge transition">
<title>WR_PRE&#45;&gt;WR_START</title>
<path fill="none" stroke="#000000" d="M200.1503,-372.2657C152.4757,-369.1608 73.3853,-360.7885 55.395,-339 50.9948,-333.6708 50.3699,-326.8324 51.5292,-320.0316"/>
<polygon fill="#000000" stroke="#000000" points="54.9351,-320.8487 54.2722,-310.2747 48.1963,-318.9542 54.9351,-320.8487"/>
<text text-anchor="start" x="55" y="-330" font-family="Helvetica,sans-Serif" font-size="10.00" fill="#000000">not (q_burst_cnt_wr == num_trans_d) &#160;&#160;</text>
</g>
<!-- WR_BUFF_WAIT -->
<g id="node5" class="node state regular">
<title>WR_BUFF_WAIT</title>
<polygon fill="#ffffff" fill-opacity="0.003922" stroke="transparent" stroke-width="2" points="132,-228 16,-228 16,-192 132,-192 132,-228"/>
<text text-anchor="start" x="26.6732" y="-206.2" font-family="Helvetica,sans-Serif" font-size="12.00" fill="#000000">WR_BUFF_WAIT</text>
<path fill="none" stroke="#000000" stroke-width="2" d="M28.3333,-193C28.3333,-193 119.6667,-193 119.6667,-193 125.3333,-193 131,-198.6667 131,-204.3333 131,-204.3333 131,-215.6667 131,-215.6667 131,-221.3333 125.3333,-227 119.6667,-227 119.6667,-227 28.3333,-227 28.3333,-227 22.6667,-227 17,-221.3333 17,-215.6667 17,-215.6667 17,-204.3333 17,-204.3333 17,-198.6667 22.6667,-193 28.3333,-193"/>
</g>
<!-- WR_START&#45;&gt;WR_BUFF_WAIT -->
<g id="edge4" class="edge transition">
<title>WR_START&#45;&gt;WR_BUFF_WAIT</title>
<path fill="none" stroke="#000000" d="M66.2193,-273.8015C67.4881,-263.3976 69.1071,-250.1215 70.5394,-238.3768"/>
<polygon fill="#000000" stroke="#000000" points="74.0505,-238.4978 71.7869,-228.1476 67.102,-237.6503 74.0505,-238.4978"/>
<text text-anchor="start" x="69" y="-248" font-family="Helvetica,sans-Serif" font-size="10.00" fill="#000000">ext_awready &#160;&#160;</text>
</g>
<!-- WR_SEQ -->
<g id="node6" class="node state regular">
<title>WR_SEQ</title>
<polygon fill="#ffffff" fill-opacity="0.003922" stroke="transparent" stroke-width="2" points="96,-146 22,-146 22,-110 96,-110 96,-146"/>
<text text-anchor="start" x="32.9996" y="-124.2" font-family="Helvetica,sans-Serif" font-size="12.00" fill="#000000">WR_SEQ</text>
<path fill="none" stroke="#000000" stroke-width="2" d="M34.3333,-111C34.3333,-111 83.6667,-111 83.6667,-111 89.3333,-111 95,-116.6667 95,-122.3333 95,-122.3333 95,-133.6667 95,-133.6667 95,-139.3333 89.3333,-145 83.6667,-145 83.6667,-145 34.3333,-145 34.3333,-145 28.6667,-145 23,-139.3333 23,-133.6667 23,-133.6667 23,-122.3333 23,-122.3333 23,-116.6667 28.6667,-111 34.3333,-111"/>
</g>
<!-- WR_BUFF_WAIT&#45;&gt;WR_SEQ -->
<g id="edge5" class="edge transition">
<title>WR_BUFF_WAIT&#45;&gt;WR_SEQ</title>
<path fill="none" stroke="#000000" d="M70.671,-191.8015C68.7484,-181.2915 66.2897,-167.8503 64.1252,-156.0177"/>
<polygon fill="#000000" stroke="#000000" points="67.562,-155.3545 62.3197,-146.1476 60.6763,-156.6142 67.562,-155.3545"/>
<text text-anchor="start" x="67" y="-166" font-family="Helvetica,sans-Serif" font-size="10.00" fill="#000000">buff_valid &#160;&#160;</text>
</g>
<!-- WR_WAIT -->
<g id="node7" class="node state regular">
<title>WR_WAIT</title>
<polygon fill="#ffffff" fill-opacity="0.003922" stroke="transparent" stroke-width="2" points="264,-52 186,-52 186,-16 264,-16 264,-52"/>
<text text-anchor="start" x="196.6722" y="-30.2" font-family="Helvetica,sans-Serif" font-size="12.00" fill="#000000">WR_WAIT</text>
<path fill="none" stroke="#000000" stroke-width="2" d="M198.3333,-17C198.3333,-17 251.6667,-17 251.6667,-17 257.3333,-17 263,-22.6667 263,-28.3333 263,-28.3333 263,-39.6667 263,-39.6667 263,-45.3333 257.3333,-51 251.6667,-51 251.6667,-51 198.3333,-51 198.3333,-51 192.6667,-51 187,-45.3333 187,-39.6667 187,-39.6667 187,-28.3333 187,-28.3333 187,-22.6667 192.6667,-17 198.3333,-17"/>
</g>
<!-- WR_SEQ&#45;&gt;WR_WAIT -->
<g id="edge6" class="edge transition">
<title>WR_SEQ&#45;&gt;WR_WAIT</title>
<path fill="none" stroke="#000000" d="M51.7933,-109.7713C48.0399,-96.9789 45.9162,-80.2202 55.061,-69 70.0681,-50.5871 131.084,-41.5775 175.7232,-37.3735"/>
<polygon fill="#000000" stroke="#000000" points="176.1759,-40.8471 185.8271,-36.4764 175.5567,-33.8746 176.1759,-40.8471"/>
<text text-anchor="start" x="55" y="-84" font-family="Helvetica,sans-Serif" font-size="10.00" fill="#000000">q_burst_size_wr == q_beat_cnt_wr &#160;&#160;</text>
<text text-anchor="start" x="55" y="-72" font-family="Helvetica,sans-Serif" font-size="10.00" fill="#000000">ext_wready &#160;&#160;</text>
</g>
<!-- WR_WAIT&#45;&gt;WR_PRE -->
<g id="edge7" class="edge transition">
<title>WR_WAIT&#45;&gt;WR_PRE</title>
<path fill="none" stroke="#000000" d="M224.3006,-52.1837C223.643,-63.9039 222.3849,-79.4331 220,-93 209.4107,-153.239 181.9635,-167.8962 193.295,-228 202.0476,-274.4253 220.8006,-281.1035 232,-327 233.4705,-333.0262 234.5085,-339.5917 235.2413,-345.8524"/>
<polygon fill="#000000" stroke="#000000" points="231.771,-346.3315 236.2087,-355.9522 238.7391,-345.664 231.771,-346.3315"/>
<text text-anchor="start" x="193" y="-213" font-family="Helvetica,sans-Serif" font-size="10.00" fill="#000000">(ext_bresp == RESP_OKAY) &#160;&#160;</text>
<text text-anchor="start" x="193" y="-201" font-family="Helvetica,sans-Serif" font-size="10.00" fill="#000000">ext_bvalid &#160;&#160;</text>
</g>
<!-- WR_WAIT&#45;&gt;WR_PRE -->
<g id="edge8" class="edge transition">
<title>WR_WAIT&#45;&gt;WR_PRE</title>
<path fill="none" stroke="#000000" d="M264.247,-40.1853C303.157,-47.4575 357,-61.1135 357,-81 357,-333 357,-333 357,-333 357,-349.161 317.5336,-360.2701 283.8677,-366.8066"/>
<polygon fill="#000000" stroke="#000000" points="282.8558,-363.434 273.656,-368.6889 284.1248,-370.3181 282.8558,-363.434"/>
<text text-anchor="start" x="357" y="-213" font-family="Helvetica,sans-Serif" font-size="10.00" fill="#000000">not ((ext_bresp == RESP_OKAY)) &#160;&#160;</text>
<text text-anchor="start" x="357" y="-201" font-family="Helvetica,sans-Serif" font-size="10.00" fill="#000000">ext_bvalid &#160;&#160;</text>
</g>
</g>
</svg>
